<?xml version="1.0" encoding="UTF-8"?>
<svg id="Layer_2" data-name="Layer 2" xmlns="http://www.w3.org/2000/svg" xmlns:xlink="http://www.w3.org/1999/xlink" viewBox="0 0 339.34 82.27">
  <defs>
    <style>
      .cls-1 {
        font-size: 48px;
        letter-spacing: .1em;
      }

      .cls-1, .cls-2 {
        fill: #b4954d;
      }

      .cls-3 {
        fill: url(#linear-gradient);
      }

      .cls-3, .cls-4, .cls-5, .cls-6, .cls-7, .cls-8, .cls-9, .cls-10, .cls-11, .cls-12, .cls-13, .cls-14, .cls-15, .cls-16, .cls-17, .cls-18, .cls-19, .cls-20, .cls-21, .cls-22, .cls-23, .cls-24, .cls-25, .cls-26, .cls-27, .cls-2, .cls-28, .cls-29, .cls-30, .cls-31, .cls-32, .cls-33 {
        stroke-width: 0px;
      }

      .cls-34 {
        font-family: Krub-BoldItalic, Krub;
        font-style: italic;
        font-weight: 700;
      }

      .cls-35 {
        font-size: 36px;
        letter-spacing: .1em;
      }

      .cls-35, .cls-16 {
        fill: #3596ac;
      }

      .cls-4 {
        fill: #5f5e30;
      }

      .cls-5 {
        fill: #7c4126;
      }

      .cls-6 {
        fill: #2b88a1;
      }

      .cls-7 {
        fill: #485f47;
      }

      .cls-8 {
        fill: #5bb0c2;
      }

      .cls-9 {
        fill: #566442;
      }

      .cls-10 {
        fill: #2a7f86;
      }

      .cls-11 {
        fill: #9aa579;
      }

      .cls-12 {
        fill: #86935c;
      }

      .cls-13 {
        fill: #967b35;
      }

      .cls-14 {
        fill: #1b738a;
      }

      .cls-15 {
        fill: #0d4a5f;
      }

      .cls-17 {
        fill: #1d1e30;
      }

      .cls-18 {
        fill: #104149;
      }

      .cls-19 {
        fill: #145f75;
      }

      .cls-20 {
        fill: #135c5b;
      }

      .cls-21 {
        fill: #145d68;
      }

      .cls-22 {
        fill: #424f33;
      }

      .cls-23 {
        fill: #204542;
      }

      .cls-24 {
        fill: #10303a;
      }

      .cls-25 {
        fill: #d8c585;
      }

      .cls-26 {
        fill: #c6c496;
      }

      .cls-27 {
        fill: #c1ae65;
      }

      .cls-28 {
        fill: #9a5329;
      }

      .cls-29 {
        fill: #85522b;
      }

      .cls-30 {
        fill: #7f7645;
      }

      .cls-31 {
        fill: #f0e4b7;
      }

      .cls-32 {
        fill: #f4f2d3;
      }

      .cls-33 {
        fill: #697c5c;
      }
    </style>
    <linearGradient id="linear-gradient" x1="39.75" y1="24.75" x2="44.9" y2="29.38" gradientUnits="userSpaceOnUse">
      <stop offset="0" stop-color="#2a93a9"/>
      <stop offset="1" stop-color="#0d475b"/>
    </linearGradient>
  </defs>
  <g id="Logo_7" data-name="Logo 7">
    <g id="_Your_Text_Here_" data-name="[Your Text Here]">
      <g>
        <g>
          <path class="cls-2" d="M6.26,57.57c-.09.22.12.51.1.56-.54.38-.49.91-.6,1.43-.66,3.01-.79,4.95.1,7.95.16.55.28.86.5,1.38.1.24.19.46.3.69-.09.35.85,1.96,1.2,2.46,1.12,1.64,3.24,3.15,2.55,3.76-.27.24-.9.02-1.25-.09-2.6-2.04-2.76-2.39-4.59-4.84-2.97-7.28.07-13.53,5.59-19.09.17.04.23.16.2.3-.19.79-3.18,3.34-4.09,5.49Z"/>
          <path class="cls-27" d="M7.86,71.66c.1.14.2.29.3.43,1.66,2.32,3.89,4.26,6.49,5.79.9.53,2.48,1.36,3.44,1.73.1.04.4-.04.5,0,.36.13.66.31,1.05.43,1.33.42,3.31,1.01,4.69,1.12.2.2.53.22.8.26-5.91,0-11.62-2.28-15.97-5.7.34.11.97.33,1.25.09.69-.61-1.43-2.12-2.55-3.76-.34-.5-1.29-2.12-1.2-2.46.35.72.75,1.4,1.2,2.07Z"/>
          <g>
            <path class="cls-17" d="M36.4,80.21c-1.55.41-3.09.82-4.69,1.04-1.31-.23-4.67.62-4.89-.09,1.18-.05,2.35-.28,3.49-.52.82-.17,1.51-.33,2.3-.6.37-.13.65-.28,1-.43.03-.02.33-.08.7-.26l2.1.86Z"/>
            <path class="cls-24" d="M26.82,81.16c.22.71,3.58-.14,4.89.09-1.98.27-4.62.45-6.59.17-.27-.04-.6-.06-.8-.26.56.04,1.88.03,2.5,0Z"/>
          </g>
          <path class="cls-13" d="M13.94,49.11c-1.91,1.79-3.6,3.67-4.99,5.79-.43.65-.87,1.19-1.2,1.9-.41-1.24-.31.07-1.5.78.91-2.15,3.9-4.69,4.09-5.49.03-.14-.03-.26-.2-.3.5-.51,1.28-1.29,1.8-1.73.27-.23.62-.39.9-.6.49-.37.62-.24.65-.26.35-.25.69-.94.9-1.04,1.14-.55-.46.81-.45.95Z"/>
          <path class="cls-4" d="M7.26,58.09c-.39,1.18-.64,2.31-.7,3.54-.05,1.08.16,1.63.2,2.33,0,.09,0,.17,0,.26,0,.16.06,1.22-.15,1.12-.29-1.09-.21,1.53-.75,2.16-.89-3-.76-4.94-.1-7.95l.8-.82c.08-.36.26-.64.7-.65Z"/>
          <path class="cls-23" d="M8.45,68.46c-.35-.42-1,1.99-1,2.12,0,.18.57.91.4,1.08-.45-.68-.85-1.35-1.2-2.07-.11-.23-.2-.45-.3-.69.51-.83.85-1.66,1-2.59.2.48.82,1.73,1.1,2.16Z"/>
          <path class="cls-22" d="M7.36,66.3c-.14.93-.48,1.76-1,2.59-.22-.53-.34-.84-.5-1.38.54-.63.46-3.25.75-2.16.21.09.16-.97.15-1.12.14.7.33,1.4.6,2.07Z"/>
          <path class="cls-13" d="M7.76,56.8c-.19.42-.36.86-.5,1.3-.44.01-.62.29-.7.65l-.8.82c.11-.52.06-1.05.6-1.43.02-.05-.19-.34-.1-.56,1.19-.71,1.09-2.02,1.5-.78Z"/>
          <g>
            <path class="cls-14" d="M51.17,49.11c.16.18.34.34.5.52,1.05,1.22,2.24,2.7,2.99,4.06,3.41,6.13,2.63,12.12-2.1,17.45-.09-2.74,1.97-5.44,2-8.34-.19-1.2-.25-2.44-.5-3.63-.01-.07-.18-.02-.2-.09-.49-2.29-1.18-4.56-1.4-6.91-.33-1.19-1.52-2.86-1.5-3.02.01-.06.14-.04.2-.04Z"/>
            <path class="cls-15" d="M51.17,49.11c-.06,0-.19-.02-.2.04-.03.16,1.16,1.83,1.5,3.02.22,2.35.91,4.62,1.4,6.91.01.07.19.02.2.09.25,1.19.31,2.43.5,3.63-.03,2.89-2.09,5.59-2,8.34-.7.51-1.16,1.21-1.85,1.73-.08.06-.21-.15-.3-.09-.07.05-.54.66-.6.69-.19.12-1.12.35-1.9.95-.17.13-.23.92-.9.69-.15.73-1.33.8-1.65,1.56-.44.24-.83.55-1.3.78-.15-.22-1.08.42-1.25.43-.12.01-1.18-.27-1.8-.17-.72.11-2.09,1.58-.55,1.21-1.11.4-1.72.55-2.79.86l-.1-.09c.24-.12,2.22-2.58,2.6-3.02,1.04.31,3.7.44,4.54-.09.5-.31,1.88-2.14,2.35-2.55,2.87-2.49,3.36-1.07,5.09-5.7.94-2.52,1.37-4.5,1.2-7.17l-.5-2.85c-.13-.54.59-1-.1-.82.24-2.71-.34-5.23-1.7-7.69-.41-.75-1.01-1.4-1.4-2.16.48.5,1.02.94,1.5,1.47Z"/>
            <path class="cls-14" d="M45.38,76.67c.31-.75,1.49-.83,1.65-1.56.67.22.72-.56.9-.69.78-.6,1.71-.83,1.9-.95.06-.04.53-.64.6-.69.09-.06.22.15.3.09.69-.51,1.15-1.22,1.85-1.73-2.14,2.42-4.24,3.89-7.19,5.53Z"/>
            <path class="cls-14" d="M44.09,77.45c-1.16.58-2.36,1.02-3.59,1.47-1.54.37-.17-1.1.55-1.21.62-.1,1.67.18,1.8.17.16-.02,1.09-.65,1.25-.43Z"/>
            <path class="cls-15" d="M40.19,76.67c1-1.18,2.9-3.42,3.69-4.58.2-.29.65-.75.8-1.04.74.27.98-1.01,1.1-1.17,1.28-1.78,5.47-6.24,5.49-6.65.04-.93-.79.3-1.3.82,1.57-2.09,2.55-3.96,2.79-6.48,0-.03,0-.06,0-.09.69-.18-.03.28.1.82l.5,2.85c.17,2.67-.26,4.65-1.2,7.17-1.73,4.64-2.22,3.21-5.09,5.7-.47.41-1.84,2.24-2.35,2.55-.84.52-3.5.4-4.54.09Z"/>
          </g>
          <path class="cls-16" d="M21.73,75.63c.31.28.74.62,1.1.86,2.27,1.58,5.72,2.86,8.53,3.46.41.09.31.3,1.25.09-.78.27-1.48.44-2.3.6l-3.24.35c-1.34-.84-6.52-2.37-7.44-.95-.38-.12-.69-.3-1.05-.43-.1-.04-.4.04-.5,0-.97-.37-2.54-1.2-3.44-1.73v-.17s.17-.08.25.17c.45-.97,4.34-2.42,5.19-2.51,1.22-.12,1.08.42,1.65.26Z"/>
          <path class="cls-15" d="M9.05,69.32c.38.49,1.63,1.77,2.15,2.16.03.03.22-.02.25,0,.02.02-.05.17.35.43.54.35,1.79.93,2.45,1.21,4.06,1.73,6.97,1.57,11.38,1.3,0,.06.02.16-.05.17-.57.12-3.77.12-4.64.09-.55-.02-1.04-.03-1.6-.09-3.36-.31-3.73-1.63-7.29,1.08-.05.36.87.84,1.2,1.08.24.18,1.24.88,1.4.95v.17c-2.6-1.53-4.83-3.47-6.49-5.79l.1-1.51c.75-.39.12-1.45.8-1.25Z"/>
          <path class="cls-8" d="M30.31,80.64c-1.14.23-2.32.47-3.49.52-.62.03-1.93.04-2.5,0-1.38-.11-3.36-.71-4.69-1.12.91-1.42,6.09.11,7.44.95l3.24-.35Z"/>
          <path class="cls-18" d="M8.45,68.46c.09.15.5.73.6.86-.68-.2-.05.86-.8,1.25l-.1,1.51c-.1-.14-.2-.29-.3-.43.17-.17-.4-.9-.4-1.08,0-.13.65-2.54,1-2.12Z"/>
          <path class="cls-19" d="M43.09,69.58c.45.03.1.4-.1.6-1.14.25-10.95,6.51-18.96,5.66-.43.44,7.25,2.56,7.83,2.64,2.47.32,3.98-.58,4.19-.6.12-.01.23.07.25.17-.43.28-.84.61-1.3.86-.34.19-.66.41-.7.43-.36.18-.66.24-.7.26-2.36-.12-6.4-1.46-8.63-2.33-.9-.35-2.26-1.19-2.15-.78-.35-.25-.79-.58-1.1-.86-.27-.25-.66-.63-.8-.95.87.03,4.07.03,4.64-.09.07-.02.05-.11.05-.17,6.12-.39,12.34-1.81,17.47-4.84Z"/>
          <path class="cls-14" d="M33.61,79.61c-.35.16-.62.3-1,.43-.94.21-.83,0-1.25-.09-2.82-.6-6.26-1.88-8.53-3.46-.12-.41,1.25.43,2.15.78,2.24.87,6.28,2.22,8.63,2.33Z"/>
          <g>
            <path class="cls-2" d="M49.68,47.64c.39.76.99,1.41,1.4,2.16-.22.34-.15.01-.55-.52-.18.1-1.14.27-1.2.26-.12-.03-1.42-1.52-1.65-1.73.67-.2,1.77.02,1.8-.35.05.05.13.1.2.17Z"/>
            <path class="cls-2" d="M38.3,38.31c.77.86,1.74,1.44,2.69,2.07,3.84,2.57,3.64,2.45,6.89,5.53-1.27.32-3.64-2.17-3.79-1.38-.04-.04-.36-.14-.5-.26-.93-1.35-2.26-2.49-3.39-3.72-.67-.73-1.25-1.51-2.1-2.12-.05-.18.2-.12.2-.13Z"/>
            <path class="cls-13" d="M47.88,45.91c.55.52,1.07,1.01,1.6,1.56-.03.36-1.12.14-1.8.35-.16-.15-.43-.28-.6-.43-.1-.09-.26-.24-.1-.3-1.06-.77-1.98-1.65-2.89-2.55.15-.79,2.52,1.7,3.79,1.38Z"/>
          </g>
          <path class="cls-25" d="M22.23,44.7c-4.25,1.99-9.3,5.21-11.38,9.07l-.2-.13c-.41,1.05-.32,1.25-1.7,1.25,1.39-2.12,3.08-4,4.99-5.79,2.08-1.95,4.51-3.65,6.59-5.62,0,0,.11.02.1-.09.5.44,1.07.87,1.6,1.3Z"/>
          <path class="cls-29" d="M20.53,43.49c-2.08,1.97-4.5,3.66-6.59,5.62-.01-.14,1.59-1.5.45-.95-.2.1-.55.78-.9,1.04-.03.02-.16-.11-.65.26v-.17c.9-.58,3.72-3.38,5.29-4.49.7-.5,1.56-1.04,2.4-1.3Z"/>
          <g>
            <g>
              <path class="cls-2" d="M14.94,37.62c.79.79,1.5,1.63,2.3,2.42,1.14,1.13,2.16,2.3,3.39,3.37.01.11-.1.08-.1.09-.83.25-1.69.8-2.4,1.3-1.69.59-3.45,1.11-5.09,1.81-.13.06-.27.11-.4.17-.07.03-.14.06-.2.09-1.1.5-2.07,1.12-3.09,1.73-1.65.98-3.3,1.92-4.59,3.28.23-.36.5-.59.2-.95,3.65-4.02,7.78-6.98,13.07-9.29-2.75-1.61-4.97-3.64-7.19-5.75-.07-.44,2.24.74,2.45.86,1.26.76,1.03,1.38,1.65.86Z"/>
              <path class="cls-27" d="M4.76,51.87c-.34.54-1.06,1.24-1.7,2.25-.34.05-.09-.27-.3-.52.57-.81,1.13-1.66,1.8-2.42.04-.04.36-.22.4-.26.3.36.03.59-.2.95Z"/>
            </g>
            <g>
              <path class="cls-24" d="M9.35,48.59c.12,1.33-2.22,2.99-2.89,3.76-.98,1.13-2.29,4.43-2.4,5.79-.07.86.04,1.66.4,1.3,1.31-3.37,4.05-6.05,6.59-8.77.1-.1.77-.56.8-.6h.1c-.52.43-1.3,1.22-1.8,1.73-5.52,5.56-8.56,11.81-5.59,19.09-1.3-1.73-2.86-3.69-3.49-5.7-.62-1.97-.58-3.79-.2-5.79.37-1.98,1.1-3.51,2.2-5.27.63-1.01,1.36-1.71,1.7-2.25,1.29-1.37,2.94-2.3,4.59-3.28Z"/>
              <path class="cls-25" d="M3.07,54.12c-1.1,1.76-1.82,3.29-2.2,5.27-.47.09-.35-.2-.7-.35.01-.08.08-.09.1-.17.38-1.9,1.09-3.35,2.2-5.01.15-.22.29-.24.3-.26.21.24-.04.57.3.52Z"/>
              <path class="cls-27" d="M.87,59.39c-.38,2-.42,3.82.2,5.79-1.19-1.51-1.21-4.32-.9-6.13.35.14.23.44.7.35Z"/>
              <path class="cls-18" d="M11.05,50.66c-2.54,2.72-5.27,5.4-6.59,8.77-.36.37-.47-.44-.4-1.3.11-1.36,1.42-4.66,2.4-5.79.67-.77,3.02-2.43,2.89-3.76,1.02-.61,1.99-1.23,3.09-1.73-.67,1.19-1.48,2.45-1.4,3.8Z"/>
              <path class="cls-20" d="M12.85,47.47c-.06.4-.35,1.36-.6,1.73-.23-.6-.24.62-.4.86-.03.04-.7.5-.8.6-.09-1.35.73-2.61,1.4-3.8.06-.03.13-.06.2-.09.38-.01.26.27.2.69Z"/>
              <path class="cls-20" d="M12.25,49.19l.05.35c.1.03.44-.19.55-.26v.17c-.28.21-.63.38-.9.6h-.1c.16-.25.17-1.47.4-.86Z"/>
              <path class="cls-14" d="M18.14,44.79c-1.57,1.12-4.39,3.91-5.29,4.49-.11.07-.45.29-.55.26l-.05-.35c.24-.36.54-1.33.6-1.73.55-.07.49-.59.2-.86,1.64-.7,3.4-1.22,5.09-1.81Z"/>
              <path class="cls-21" d="M12.85,47.47c.06-.42.19-.7-.2-.69.13-.06.27-.12.4-.17.29.28.35.79-.2.86Z"/>
            </g>
          </g>
          <path class="cls-2" d="M10.85,53.77c-1.7,3.15-1.71,5.64-.8,8.99-.51-.07-.29-1.1-.55-1.21-.98.15-1.95.28-2.94.09.06-1.23.31-2.36.7-3.54.14-.44.31-.88.5-1.3.33-.71.77-1.25,1.2-1.9,1.38,0,1.28-.2,1.7-1.25l.2.13Z"/>
          <path class="cls-31" d="M14.64,69.84c-.93.4-2.99.85-3.19,1.64-.03-.02-.22.03-.25,0-.51-.39-1.77-1.67-2.15-2.16-.1-.13-.5-.72-.6-.86-.27-.43-.9-1.68-1.1-2.16-.27-.67-.46-1.37-.6-2.07,0-.09,0-.17,0-.26,1.15-.09,3.1.45,3.49-.43.79,2.34,2.17,4.72,4.39,6.31Z"/>
          <path class="cls-25" d="M10.05,62.76c.05.2.14.34.2.52.02.07-.02.19,0,.26-.39.89-2.35.34-3.49.43-.04-.7-.25-1.25-.2-2.33.99.19,1.97.06,2.94-.09.26.11.04,1.14.55,1.21Z"/>
          <path class="cls-15" d="M43.49,70.19c-.3.48-.49.99-.8,1.47-1.98,3.07-3.13,4.27-6.39,6.39-.02-.1-.13-.19-.25-.17-.21.03-1.72.93-4.19.6-.58-.08-8.26-2.2-7.83-2.64,8.01.86,17.82-5.41,18.96-5.66.05-.01.1.14.5,0Z"/>
          <path class="cls-14" d="M20.93,74.68c.13.32.53.7.8.95-.57.16-.43-.38-1.65-.26-.85.09-4.74,1.54-5.19,2.51-.08-.25-.2-.15-.25-.17-.16-.08-1.15-.77-1.4-.95,1-1.67,3.72-1.48,5.44-1.81.08-.02.61-.22.65-.35.56.05,1.04.07,1.6.09Z"/>
          <path class="cls-19" d="M19.33,74.59c-.04.13-.57.33-.65.35-1.72.34-4.44.14-5.44,1.81-.33-.24-1.24-.72-1.2-1.08,3.55-2.71,3.93-1.39,7.29-1.08Z"/>
          <g>
            <path class="cls-6" d="M37.6,79.69l.1.09c-.43.13-.84.31-1.3.43l-2.1-.86s.35-.24.7-.43c.32.88,4.34.2,1.45.6-.06.48.84.32,1.15.17Z"/>
            <path class="cls-8" d="M43.89,72.09c-.8,1.15-2.69,3.4-3.69,4.58-.38.44-2.36,2.91-2.6,3.02-.3.15-1.21.31-1.15-.17,2.89-.4-1.13.27-1.45-.6.45-.25.87-.58,1.3-.86,3.26-2.12,4.41-3.32,6.39-6.39.55-.11.23.48,1.2.43Z"/>
            <path class="cls-15" d="M44.68,71.05c.06-.12.39-.82.4-.86.25.44,1.18-1.12.35-1.99-.35.14-.57.39-.85.6-.84.64-.61.59-1.1,1.38-.4.14-.45-.01-.5,0,.2-.21.55-.57.1-.6.31-.18.66-.43.9-.69.02-.01.08.01.1,0,2.46-1.46,3.99-2.89,5.89-4.84.5-.52,1.33-1.75,1.3-.82-.02.41-4.21,4.88-5.49,6.65-.11.16-.36,1.44-1.1,1.17Z"/>
            <path class="cls-6" d="M44.59,68.81c.87-.23.62.91.5,1.38-.01.05-.34.74-.4.86-.14.29-.6.74-.8,1.04-.97.04-.65-.54-1.2-.43.31-.47.5-.99.8-1.47.49-.79.25-.74,1.1-1.38Z"/>
            <path class="cls-14" d="M45.08,70.19c.12-.47.37-1.61-.5-1.38.28-.21.5-.46.85-.6.83.87-.1,2.43-.35,1.99Z"/>
          </g>
          <g>
            <path class="cls-15" d="M18.73,4.1c-.39.44-4.12,5.12-4.39,5.53-.27.4-.6.77-.8,1.21-.89.39-1.87,2.2-2.5,2.98-.83,1.03-1.82,1.96-2.6,3.02-.18.26.11.32.1.35-1.89,2.89-2.81,3.84-3.14,7.65-.43-4.08-.67-8.21-.45-12.31.01-.19.65-.85-.3-.73.21-.3.46-.58.7-.86-.24.86,1.72-.56,2.45-1.12,1.44-1.1,2.56-2.52,3.89-3.72.65-.4,5.66-1.47,7.04-1.99Z"/>
            <path class="cls-19" d="M24.32,2.11c1.5.27,3.04.29,4.54.6,1.62.34,3.71,1.29,5.39,1.64.55.45,1.28.66,1.9,1.04.35.22,1.32,1.23,1.5,1.3.22.08.82-.16.75.17-5.25-.36-11.33.6-16.27,2.16-5.28,1.66-9.97,4.2-13.27,8.21-1.94,2.35-2.86,4.15-3.09,7.08-.2,2.51.14,3.82,1.1,6.13.28.67.51,1.27.9,1.9.22.36.45.75.8,1.04.02.05,0,.16.2.35l-.1.09s-.3-.18-.7-.69c-1.89-2.38-2.13-4.9-2.69-7.69-.18-.89-.35-1.74-.5-2.64,0-.04-.19-.13-.2-.17-.07-.42.11-1.15.1-1.21,0-.02-.2-.24-.2-.26-.34-3.11.09-6.06-1-7.39.36-.7.73-1.34,1.2-1.99.95-.11.31.55.3.73-.22,4.1.02,8.23.45,12.31.33-3.8,1.25-4.76,3.14-7.65.01-.02-.28-.09-.1-.35.77-1.07,1.77-2,2.6-3.02.63-.78,1.61-2.59,2.5-2.98-.92,2.09-.09,2.64,1.1,1.21,1.79-1.39,6.05-3.41,8.33-4.32,3.47-1.37,6.97-2.26,10.83-2.2.01-.09,0-.14-.05-.22-.28-.38-8.5-2.31-10.08-2.16-1.79.17-3.07,2.18-3.99,2.76-.09.06-.19-.09-.2-.09-.25.15-.5.62-.85.43,1.78-1.83,3.38-2.87,5.69-4.15Z"/>
            <path class="cls-13" d="M52.87,9.19c.35.41.66.87,1,1.3.49,1.39,1.15,2.77,1.3,4.23.46,4.52-1.21,8.7-4.19,12.35-.36.44-3.1,3.36-3.49,3.72-.46.41-.99.84-1.5,1.21-.91.67-1.49,1.21-1.5.6,1.7-1.59,2.84-2.84,4.19-4.67.13-.17.27-.33.4-.52.38-.03.27.32.35.35.25.08,1.42-2.26,1.55-2.51.67-1.26,1.29-2.54,1.7-3.89.83-2.76.96-4.83.1-7.6-.08-.25-.2-.53-.3-.78-.32-.83-.91-1.9-1.4-2.68-.55-.87-1.26-1.83-2-2.59,1.11-.77,2.71.86,3.79,1.47Z"/>
            <path class="cls-6" d="M5.26,25.44c.56,2.79.8,5.31,2.69,7.69-1.29-1.08-2.41-2.62-3.29-3.97-.35-.54-.7-1.08-1-1.64-1.53-2.93-2.14-5.58-1.8-8.81.15-1.41.41-2.08.9-3.37.43.6.06,1.52.1,2.2.11,1.93,1.21,6.35,2.4,7.91Z"/>
            <path class="cls-15" d="M20.83,2.2c-.8.59-1.46,1.18-2.1,1.9-1.38.52-6.39,1.59-7.04,1.99-1.33,1.19-2.46,2.61-3.89,3.72-.73.56-2.68,1.98-2.45,1.12C9.23,6.16,15.04,3.39,21.33,1.68c-.04.11-.4.45-.5.52Z"/>
            <path class="cls-2" d="M52.87,9.19c-1.09-.61-2.69-2.24-3.79-1.47-.93-.97-2.07-1.8-3.19-2.59-.21-.15-.37-.28-.6-.43-.24-.16-.46-.28-.7-.43-.72-.44-1.43-.83-2.2-1.21-1.04-.51-2.86-1.41-3.99-1.73.32-.05.4-.18.6-.43,1.42.4,1.99.52.8.65.19.61.82-.12.95-.13.41-.02,4.9,1.92,6.19,2.68,2.24,1.32,4.34,3.22,5.94,5.1Z"/>
            <path class="cls-14" d="M5.26,25.44c-1.18-1.56-2.28-5.98-2.4-7.91-.04-.68.33-1.6-.1-2.2.25-.65.38-.93.7-1.56,1.09,1.32.66,4.28,1,7.39,0,.02.2.24.2.26,0,.06-.17.79-.1,1.21,0,.04.19.13.2.17.15.9.32,1.74.5,2.64Z"/>
            <path class="cls-27" d="M39,.9c-.2.25-.28.38-.6.43-.52-.14-2.58-.37-3.34-.69-.87.03-2.15-.31-2.94-.35-.37-.13-.36-.19.05-.26,1.21-.2,5.49.49,6.84.86Z"/>
            <path class="cls-19" d="M31.01.29c-1.49-.01-3.38.41-3.09,0,1.01-.1,2.09-.17,3.09,0Z"/>
            <path class="cls-27" d="M54.37,30.01c-.65.8-1.26,1.68-2,2.42-3.22,3.22-7.34,5.6-11.38,7.95-.95-.64-1.93-1.22-2.69-2.07,0-.03,0-.06,0-.09.35-.06.62-.27.9-.43.41-.24.82-.5,1.2-.78.91-.04,2.45-.71,3.39-1.12,3.41-1.19,7.7-3.65,9.98-6.13.54-.23.1.47.6.26Z"/>
            <g>
              <path class="cls-8" d="M27.92.29c-.29.41,1.6-.01,3.09,0,.36,0,.74-.02,1.1,0,.79.04,2.07.38,2.94.35.76.32,2.83.55,3.34.69,1.13.31,2.95,1.22,3.99,1.73-1.14.48-3.53.32-5.04.43-4.44-1.69-5.78-2.75-10.88-2.33-.07,0-.03-.18-.1-.17.02.43-.62.19-.8.26-.27.11-1.07.77-1.25.86-2.3,1.28-3.91,2.32-5.69,4.15-.66.68-1.36,1.4-1.9,2.16-.69-.36-1.51,1-1.85,1.21-.01,0-.19-.18-.2-.17-.22.11-.09.57-.35.17.27-.41,4-5.09,4.39-5.53.64-.72,1.3-1.31,2.1-1.9.5.87,2.06-.45,3.04-.26,1.31-1.05,3.45-1.14,2.55-1.38.48-.07,1.15-.22,1.5-.26Z"/>
              <path class="cls-8" d="M26.42.55c.91.25-1.23.33-2.55,1.38-.98-.19-2.54,1.13-3.04.26.09-.07.46-.4.5-.52,1.79-.49,3.22-.86,5.09-1.12Z"/>
              <path class="cls-6" d="M16.74,8.42c-.71,1-1.9,3.39-2.1,3.63-1.19,1.43-2.02.89-1.1-1.21.19-.44.53-.81.8-1.21.26.39.13-.06.35-.17.01,0,.19.18.2.17.33-.21,1.15-1.57,1.85-1.21Z"/>
            </g>
            <g>
              <path class="cls-24" d="M56.66,14.55c.25.44.49.93.7,1.38.49,1.86.65,3.72.4,5.62-.37,2.86-1.93,5.96-3.99,8.21-2.28,2.49-6.57,4.94-9.98,6.13.21-.09.86-.47,1.3-.69.36-.18.74-.32,1.1-.52,1.4-.77,1.1-.61,2.2-1.77-.24-1.33,2.56-2.57,1.7-3.11.78-.56,2.26-3.26.9-2.72,2.98-3.66,4.66-7.83,4.19-12.35.27.62.97-.14,1.5-.17Z"/>
              <path class="cls-25" d="M58.36,22.07c-.35,2.52-1.44,4.78-2.99,6.91-.24.33-.76.74-1,1.04-.5.21-.06-.49-.6-.26,2.06-2.25,3.62-5.35,3.99-8.21.18.26.05.69.6.52Z"/>
              <path class="cls-15" d="M56.66,14.55c-.53.03-1.22.79-1.5.17-.15-1.46-.81-2.84-1.3-4.23.92,1.18,2.08,2.8,2.79,4.06Z"/>
              <path class="cls-27" d="M58.36,22.07c-.55.17-.42-.26-.6-.52.25-1.9.09-3.76-.4-5.62,1.08,2.37,1.36,3.57,1,6.13Z"/>
              <path class="cls-18" d="M46.18,34.68c.15-1.24,1.49-2.55,1.3-3.89.4-.36,3.14-3.28,3.49-3.72,1.36-.54-.11,2.16-.9,2.72.86.54-1.94,1.78-1.7,3.11-1.1,1.16-.8,1.01-2.2,1.77Z"/>
              <path class="cls-10" d="M45.08,35.2c-.44.22-1.09.6-1.3.69-.94.41-2.48,1.09-3.39,1.12,1.17-.85,2.14-1.9,3.19-2.85.49-.44,1.01-.84,1.5-1.3,1.8-1.35.18.58,0,2.33Z"/>
              <path class="cls-20" d="M46.18,34.68c-.36.2-.74.34-1.1.52.18-1.75,1.8-3.68,0-2.33.3-.28.61-.57.9-.86.51-.37,1.04-.8,1.5-1.21.19,1.34-1.14,2.65-1.3,3.89Z"/>
            </g>
            <path class="cls-15" d="M14.64,12.04c.2-.24,1.39-2.63,2.1-3.63.54-.76,1.23-1.48,1.9-2.16.35.19.59-.28.85-.43,0,0,.11.14.2.09.92-.58,2.2-2.6,3.99-2.76,1.58-.15,9.8,1.78,10.08,2.16.06.08.06.13.05.22-3.86-.05-7.36.83-10.83,2.2-2.29.91-6.54,2.93-8.33,4.32Z"/>
            <path class="cls-16" d="M42.39,3.06c.77.37,1.48.77,2.2,1.21-.65.47-1.1.24-2.05.69-.11.05-.38.67-2.2,1.12.67.31-.72.14-.65.69-.44-.03-1.09-.03-1.1.09-.07,0-.13,0-.2,0,.07-.33-.52-.1-.75-.17-.18-.06-1.15-1.08-1.5-1.3-.61-.38-1.35-.58-1.9-1.04-1.67-.35-3.77-1.3-5.39-1.64-1.5-.32-3.04-.34-4.54-.6.18-.1.98-.76,1.25-.86.18-.07.82.17.8-.26.07,0,.03.18.1.17,5.1-.41,6.44.64,10.88,2.33,1.51-.11,3.9.04,5.04-.43Z"/>
            <path class="cls-2" d="M38.4,6.86c.07,0,.13,0,.2,0,1.66.13,3.46.47,4.99,1.04.08.03,1.2.59,1.6.78-.17.49-1.48.18-2.05.26-.4.05-.9.31-1.1.35-.61.11-1.57.04-1.7.17-.28.28.86.43,2.25,1.3-1.87-.69-3.71-1.43-5.74-1.73-7.14-1.06-14.65.62-20.41,4.41-.03.01-.45.2-.6.26.52-.99,1.45-1.45,2.55-1.9.02,0,.18.22.3.17.97-.4,2.29-1.18,3.79-1.73.87-.32,2.16-.59,3.09-.86.48-.44-1.95-.31-2.3-.6-.12.04.29.58-1.15.26,4.94-1.56,11.02-2.52,16.27-2.16Z"/>
            <path class="cls-2" d="M15.84,13.69c-1.18.52-2.32,1.68-3.19,2.51-.79.74-1.73,1.33-2.35,2.68-1.4-.85-.62-2.26-1.45-1.64,3.3-4.01,8-6.54,13.27-8.21,1.44.32,1.03-.22,1.15-.26.35.29,2.78.16,2.3.6-.93.27-2.23.55-3.09.86-1.5.55-2.82,1.32-3.79,1.73-.12.05-.28-.18-.3-.17-1.1.45-2.02.91-2.55,1.9Z"/>
            <path class="cls-31" d="M11.85,31.66c-.41.11-2.03.19-2.45.17-.05,0-.17-.27-.6,0-.31-.08-1.52-2.33-1.95-1.38-.96-2.32-1.3-3.63-1.1-6.13.23.05-.04.5.25.6.18.07,3.78.07,3.44-.86.08,2.69,1.05,5.21,2.4,7.6Z"/>
            <path class="cls-27" d="M12.65,16.19c-.1.17-.31.36-.4.52-2.24,1.9-2.87,4.72-2.79,7.34.34.93-3.26.93-3.44.86-.29-.11-.02-.55-.25-.6.24-2.93,1.16-4.73,3.09-7.08.83-.62.05.79,1.45,1.64.62-1.35,1.56-1.94,2.35-2.68Z"/>
            <path class="cls-31" d="M11.85,31.66c.39.69.84,1.37,1.2,2.07-.73-.52-1.22-.22-2.2-.17-.64,0-.85-.54-1.3-.86-.32-.23-.59-.74-1.8-.35-.39-.63-.62-1.23-.9-1.9.43-.95,1.64,1.3,1.95,1.38.43-.27.54,0,.6,0,.42.02,2.04-.06,2.45-.17Z"/>
            <path class="cls-13" d="M10.85,33.82c.11.24,2.67,2.38,4.09,3.8-.61.51-.38-.11-1.65-.86-.21-.12-2.51-1.3-2.45-.86-.75-.71-1.41-1.2-2.2-2.07l.1-.09c.09.09.27.15.35.26l1.75-.17Z"/>
            <path class="cls-2" d="M9.55,32.69c.45.33.65.87,1.3.86.01.09-.02.21,0,.26l-1.75.17c-.08-.11-.26-.17-.35-.26-.2-.19-.18-.29-.2-.35-.32-.77-.04-.49,1-.69Z"/>
            <path class="cls-25" d="M9.55,32.69c-1.04.2-1.32-.08-1,.69-.35-.29-.58-.68-.8-1.04,1.2-.4,1.48.12,1.8.35Z"/>
            <path class="cls-15" d="M49.08,7.72c.73.77,1.44,1.72,2,2.59-.74-.38-.25.27-.4.65-.06.15-.41.22-.5.35-.32.47-.04.88-.9.65-.67-.86-1.8-1.89-2.69-2.59-.55-.43-1.39-1.48-2.99-1.47-1.53-.57-3.33-.9-4.99-1.04,0-.12.66-.12,1.1-.09.35.02.9.13,1.3.17.37.04.81.2,1.15.35.75.03,3.63-1.34,3.74-2.16,1.12.79,2.27,1.62,3.19,2.59Z"/>
            <path class="cls-31" d="M48.68,27.94c-1.36,1.83-2.49,3.07-4.19,4.67-1.18,1.1-5.78,4.67-6.19,5.62,0,.02,0,.06,0,.09,0,.01-.24-.05-.2.13.84.6,1.42,1.39,2.1,2.12-.38.25-.88.06-.8.52-.28-.31-.6-.53-.9-.86-.16-.18-1.08-1.09-1.1-1.17-.09-.45.68-.29.6-.69-.02-.1-1.41-1.11-1.2-1.34,4.04-2.45,9.21-5.72,11.18-9.76.53-.29.3.56.7.69Z"/>
            <path class="cls-27" d="M51.97,18.52c.09.85.08,1.31,0,2.16,0,.09.01.17,0,.26-.13-.68-1.66.27-1.8.56-.27.57.08,1.18,0,1.73-.06.38-.71,1.62-.3,2.98-.26.42-.51.8-.8,1.21-.13.18-.27.34-.4.52-.4-.13-.17-.98-.7-.69,1.21-2.48,1.3-4.64.8-7.26-.01-.65,2.81-.56,3.04-.78.22-.21-.2-.79.15-.69Z"/>
            <path class="cls-4" d="M52.67,21.37c-.44-.02-.02-.84-.7-.69.08-.85.09-1.31,0-2.16,0-.03,0-.06,0-.09-.09-.86-.33-1.68-.6-2.51,1.41-.59,1.55-.87,1.4-2.16.86,2.77.73,4.85-.1,7.6Z"/>
            <path class="cls-23" d="M51.07,10.32c.49.77,1.07,1.85,1.4,2.68-.41.24-.04-.72-.75-.43-.63.25-.66,1.23-1.05,1.64-.22-.44-1.11-1.87-1.4-2.25.85.23.57-.18.9-.65.09-.13.44-.2.5-.35.15-.37-.34-1.03.4-.65Z"/>
            <path class="cls-22" d="M52.47,12.99c.1.25.22.53.3.78.15,1.29.01,1.57-1.4,2.16-.19-.58-.42-1.18-.7-1.73.38-.41.42-1.39,1.05-1.64.7-.28.34.67.75.43Z"/>
            <path class="cls-28" d="M45.98,32c-.29.3-.6.58-.9.86-.48.45-1.01.85-1.5,1.3.04-.78-1.9,1.52-2.64,2.16-.54.46-1.72.97-1.75,1.47-.28.16-.55.38-.9.43.41-.94,5.01-4.51,6.19-5.62,0,.6.59.06,1.5-.6Z"/>
            <path class="cls-7" d="M52.67,21.37c-.41,1.35-1.03,2.63-1.7,3.89-.19.13-.3.05-.3-.17.55-1.09,1.15-2.97,1.3-4.15.01-.08,0-.17,0-.26.68-.15.26.67.7.69Z"/>
            <path class="cls-30" d="M50.97,25.26c-.13.25-1.3,2.59-1.55,2.51-.08-.03.03-.37-.35-.35.29-.41.54-.79.8-1.21.16-.27.63-.79.8-1.12,0,.22.11.3.3.17Z"/>
            <path class="cls-25" d="M47.08,47.38c.16.15.43.28.6.43.23.21,1.52,1.7,1.65,1.73.06.01,1.02-.16,1.2-.26.4.53.33.85.55.52,1.36,2.45,1.93,4.97,1.7,7.69,0,.03,0,.06,0,.09-.3-2.5-.12,1.92-.65,2.07-.89-.19-2.43.48-3.34.78.97-4.89-1.31-9.57-4.19-13.65.23.23.85,1.01,1.05,1.04l1.45-.43Z"/>
            <path class="cls-14" d="M44.59,4.27c.24.15.46.27.7.43.26.83-2.88,2.09-4.29,2.25-.39-.04-.95-.15-1.3-.17-.07-.56,1.32-.38.65-.69,1.82-.45,2.08-1.07,2.2-1.12.95-.45,1.4-.23,2.05-.69Z"/>
            <path class="cls-19" d="M45.88,5.13c-.11.82-3,2.19-3.74,2.16-.34-.15-.77-.31-1.15-.35,1.41-.15,4.55-1.42,4.29-2.25.23.15.39.28.6.43Z"/>
            <path class="cls-5" d="M43.59,34.16c-1.05.95-2.03,2-3.19,2.85-.38.28-.79.54-1.2.78.02-.5,1.21-1.01,1.75-1.47.75-.64,2.68-2.94,2.64-2.16Z"/>
            <path class="cls-15" d="M42.59,10.75s-.06.03.3.26c1.77,1.16,2.85,2.18,3.89,3.89l-.2.04c.88,1.01,1.09,2.29,1.6,3.46.04.19-.2.12-.2.13-2.44-1.99-5.52-3.22-8.68-4.06,1.82-.02-1.46-1.88-3.14-2.42-.79-.25-2.43-.45-2.89-.6-2.34-.78-1.94-2.27-8.68-1.3-.21.03-.13-.18-.2-.17-.48.08-2.49,1.74-3.69,1.81v.17l1.05-.09c-1.43.25-4.99.96-3.59,1.21-.3.05-1.57.31-1.7.35,5.76-3.79,13.27-5.47,20.41-4.41,2.03.3,3.87,1.04,5.74,1.73Z"/>
            <path class="cls-27" d="M46.48,9.37c.15.51-.42.38-1.25.78-.28.14-1.69,1.02-1.8,1.04-.03,0-.15-.25-.55-.17-.36-.23-.28-.25-.3-.26-1.39-.86-2.53-1.02-2.25-1.3.13-.13,1.09-.06,1.7-.17.2-.04.7-.29,1.1-.35.56-.07,1.88.23,2.05-.26.44.21.88.44,1.3.69Z"/>
            <path class="cls-9" d="M46.58,9.37h-.1c-.42-.25-.85-.48-1.3-.69-.4-.19-1.51-.75-1.6-.78,1.61,0,2.44,1.04,2.99,1.47Z"/>
            <path class="cls-15" d="M16.04,23.28c1.96,1.55,4.05,2.97,6.19,4.32l1.4,1.21s-.18.04-.45-.26c-.76,1.47-1.4,3.76-1.25,5.4.08.93,1.03,3.58,1.7,4.32,1.16,1.29,3.6,1.75,5.14,2.72,1.18.74,3.07,2.92,3.99,3.2,2.1.13,8.2,1.47,9.78,1.04.58-.16-.16-.67-.55-1.21-.01-.02.02-.07,0-.09h.1c.75.77,1.36,1.64,2.1,2.42-.73-.56-.98-.05-1.75,0-3.31.2-6.99-.91-8.88-.95-1.46-.03-1.77.68-1.15,2.55.06.18,1.62,2.83,1.9,3.28.27.45.99.64.5,1.17-.86-.57-1.83-1.07-2.69-1.64-.32-.21-.38-.16-.4-.17-.49-.32-1.58-1.32-2.79-2.07-.04-.03-.35-.42-.7-.52-3.42-2.8-6.95-5.5-10.08-8.55-2.32-2.27-4.77-5.47-5.09-5.7-.36-.71-.81-1.38-1.2-2.07-1.35-2.39-2.32-4.91-2.4-7.6-.08-2.62.56-5.44,2.79-7.34-1.62,2.79.84,4.23,3.79,6.57Z"/>
            <path class="cls-26" d="M13.05,33.73c.32.23,2.77,3.44,5.09,5.7-.25.19.08,1.14-.25,1.12-.39-.02.27-.92-.65-.52-.79-.78-1.5-1.63-2.3-2.42-1.42-1.42-3.99-3.56-4.09-3.8-.02-.05.01-.17,0-.26.97-.05,1.47-.35,2.2.17Z"/>
            <path class="cls-32" d="M28.22,47.98c-.69-.2-.38.29-.9.43-.02-.01-.08.01-.1,0-.81-.55-2.91-2.19-3.39-2.42-.46-.5-1.06-.86-1.6-1.3-.52-.42-1.1-.86-1.6-1.3-1.23-1.07-2.25-2.24-3.39-3.37.92-.4.26.5.65.52.33.02,0-.94.25-1.12,3.13,3.06,6.66,5.76,10.08,8.55Z"/>
            <path class="cls-31" d="M49.28,11.96c.29.38,1.18,1.81,1.4,2.25.28.55.51,1.15.7,1.73.27.83.5,1.65.6,2.51-.28-.47-3.13.02-3.49.43-.41-1.47-.88-2.64-1.7-3.97-1.04-1.71-2.12-2.73-3.89-3.89.4-.08.52.18.55.17.11-.01,1.52-.9,1.8-1.04.83-.4,1.4-.27,1.25-.78h.1c.9.7,2.03,1.73,2.69,2.59Z"/>
            <path class="cls-3" d="M46.78,14.9c.81,1.33,1.29,2.5,1.7,3.97.11.39.22.71.3,1.12.51,2.62.41,4.78-.8,7.26-1.96,4.04-7.14,7.31-11.18,9.76-2.18-1.4-4.23-3.3-6.59-4.67.01-.02,0-.1,0-.17l13.77-9.76c.85-.53,3.82-2.86,4.09-3.59.06-.17-.11-.24-.1-.3,0-.01.24.06.2-.13-.51-1.16-.72-2.45-1.6-3.46l.2-.04Z"/>
            <path class="cls-6" d="M26.12,30.53c.29.21.61.4.9.6.87.62,1.74,1.27,2.6,1.9,3.07,2.28,6,4.71,8.88,7.17.29.34.61.56.9.86.86.93,1.85,1.84,2.6,2.85.02.02-.01.07,0,.09-.41.07-.4-.25-.45-.26-.4-.09-6.4-.56-8.08-.86-2.43-2.79-7.61-5.06-7.98-5.36-1.21-.98-.74-3.28-1.75-4.45-.41-2.05,1.12-2.86.6-3.76.59.41,1.21.8,1.8,1.21Z"/>
            <path class="cls-32" d="M36.8,37.01c-.21.23,1.18,1.24,1.2,1.34.09.4-.69.24-.6.69.01.07.94.99,1.1,1.17-2.89-2.46-5.81-4.89-8.88-7.17.51.01.54-.61.6-.69,2.36,1.36,4.4,3.26,6.59,4.67Z"/>
            <path class="cls-26" d="M43.59,44.27c.27.66-1.05-.34-1.5-.35h-.1c-.74-1.01-1.73-1.92-2.6-2.85-.08-.46.42-.27.8-.52,1.14,1.23,2.46,2.37,3.39,3.72Z"/>
            <path class="cls-2" d="M51.97,20.94c-.14,1.17-.75,3.06-1.3,4.15-.17.33-.64.86-.8,1.12-.41-1.36.24-2.6.3-2.98.08-.55-.27-1.16,0-1.73.14-.29,1.66-1.24,1.8-.56Z"/>
            <path class="cls-25" d="M51.97,18.44s0,.06,0,.09c-.35-.1.07.48-.15.69-.23.22-3.06.13-3.04.78-.08-.41-.19-.73-.3-1.12.37-.41,3.22-.91,3.49-.43Z"/>
            <path class="cls-2" d="M52.77,57.57c-.25,2.52-1.22,4.39-2.79,6.48-1.89,1.95-3.43,3.38-5.89,4.84,2.5-1.99,5.01-3.61,6.69-6.26,1.91-3.04-.39-.01-2.55-.13-.11.06-.23.37-.55.69.42-.86.91-1.84,1.1-2.76.92-.3,2.46-.97,3.34-.78.53-.15.35-4.57.65-2.07Z"/>
            <path class="cls-15" d="M44.19,46.34c.14.15.26.29.4.43,2.88,4.08,5.16,8.76,4.19,13.65-.18.92-.68,1.9-1.1,2.76-.49.5-.82,1.12-1.4,1.56.89-1.52.71-2.41-.5-3.63-2.51-2.35-5.35-4.53-8.28-6.48.05-.57-1.73-1.61-2.69-2.25.49-.53-.23-.72-.5-1.17-.27-.45-1.84-3.11-1.9-3.28-.62-1.87-.31-2.58,1.15-2.55,1.89.04,5.58,1.15,8.88.95.77-.05,1.02-.56,1.75,0Z"/>
            <path class="cls-27" d="M43.59,44.27c.14.11.46.22.5.26.91.9,1.83,1.78,2.89,2.55-.16.06,0,.21.1.3l-1.45.43c-.19-.02-.82-.8-1.05-1.04-.14-.15-.26-.29-.4-.43-.73-.78-1.35-1.65-2.1-2.42.45,0,1.77,1,1.5.35Z"/>
            <path class="cls-27" d="M43.99,68.89c-.24.26-.59.51-.9.69-5.13,3.03-11.35,4.45-17.47,4.84-4.4.28-7.32.43-11.38-1.3,0-.84,2.09,0,3.84-.35.2-.04.55-.69,3.34-.43,5.79.91,10.49.2,15.77-1.9-.3.7-.96,1.05-.85,1.9,2.67-.93,5.25-2.06,7.64-3.46Z"/>
            <path class="cls-25" d="M21.43,72.35c-2.8-.26-3.14.39-3.34.43-1.75.35-3.85-.5-3.84.35-.65-.28-1.91-.86-2.45-1.21-.4-.26-.33-.41-.35-.43.21-.79,2.26-1.24,3.19-1.64,1.98,1.42,4.3,2.12,6.79,2.51Z"/>
            <path class="cls-15" d="M39.3,14.46c-4.66-1.24-10.8-1.91-15.67-1.81v-.09c.77.02,2.9-.49,3.59-.86.33,0,2.92-.08,2.99-.22.59-1.06-6.67-1.16-7.29.22-.03,0-.07,0-.1,0-.2.03-.4.06-.6.09-.17.03-.33.06-.5.09l-1.05.09v-.17c1.21-.08,3.22-1.73,3.69-1.81.07-.01,0,.2.2.17,6.74-.98,6.35.52,8.68,1.3.46.15,2.1.35,2.89.6,1.69.53,4.96,2.4,3.14,2.42Z"/>
            <path class="cls-8" d="M22.23,11.78c.44.31-.12.51.6.95-1.55.05-3.16.09-4.69.35-1.39-.24,2.16-.96,3.59-1.21.17-.03.33-.06.5-.09Z"/>
            <path class="cls-8" d="M22.83,11.7c.63.72-.32.83.8.86v.09c-.07,0-.29.07-.8.09-.72-.44-.16-.64-.6-.95.19-.03.4-.06.6-.09Z"/>
            <path class="cls-14" d="M23.63,28.8c.3.13.54.26.7.52.53.9-1.01,1.71-.6,3.76,1.01,1.17.54,3.47,1.75,4.45.37.3,5.56,2.56,7.98,5.36,1.68.31,7.69.77,8.08.86.05.01.04.33.45.26.39.54,1.12,1.05.55,1.21-1.58.43-7.68-.91-9.78-1.04-.92-.27-2.82-2.46-3.99-3.2-1.54-.97-3.98-1.44-5.14-2.72-.67-.74-1.61-3.39-1.7-4.32-.15-1.64.49-3.93,1.25-5.4.27.3.42.25.45.26Z"/>
            <path class="cls-24" d="M34.8,52.39c.96.63,2.74,1.68,2.69,2.25-.03-.02-.25-.05-.7-.35-1.15-.75-2.31-1.54-3.49-2.25.33-.39-.79-.73-1.2-1.3.87.57,1.84,1.07,2.69,1.64Z"/>
            <path class="cls-11" d="M31.71,50.58c.28.38-.11.15-.3.35-.9-.52-1.78-1.06-2.69-1.56l.2-.86c1.21.75,2.31,1.75,2.79,2.07Z"/>
            <path class="cls-26" d="M28.22,47.98c.34.1.66.49.7.52l-.2.86h-.2c-.03-.17-.74-.64-1.2-.95.52-.14.21-.63.9-.43Z"/>
            <path class="cls-12" d="M24.42,28.89c-.13.58,2.29,1.59,1.7,1.64-.58-.41-1.21-.8-1.8-1.21-.15-.26-.4-.39-.7-.52l-1.4-1.21c.7.45,1.47.86,2.2,1.3Z"/>
            <path class="cls-33" d="M32.11,50.75c.41.56,1.52.91,1.2,1.3-.62-.38-1.27-.76-1.9-1.12.19-.19.58.04.3-.35.02.01.08-.04.4.17Z"/>
            <path class="cls-31" d="M30.21,32.17c0,.07.01.16,0,.17-.06.08-.09.7-.6.69-.85-.63-1.73-1.28-2.6-1.9l.3-.52c.85.51,2.14,1.34,2.89,1.56Z"/>
            <path class="cls-26" d="M27.32,30.62l-.3.52c-.29-.2-.6-.4-.9-.6.6-.05-1.83-1.06-1.7-1.64.96.58,1.93,1.15,2.89,1.73Z"/>
            <path class="cls-2" d="M44.09,68.89s-.08-.01-.1,0c-2.39,1.4-4.97,2.53-7.64,3.46-.11-.85.55-1.2.85-1.9,1.56-.62,3.17-1.3,4.49-2.25,1.28-.35,3.99-2.42,4.59-3.46.58-.44.91-1.06,1.4-1.56.32-.32.44-.63.55-.69,2.16.11,4.46-2.91,2.55.13-1.67,2.65-4.19,4.28-6.69,6.26Z"/>
            <path class="cls-14" d="M27.22,11.7c.17-.09.23-.08.4-.13.35-.51-4.39.09-4.69.13.61-1.38,7.87-1.28,7.29-.22-.08.14-2.66.21-2.99.22Z"/>
            <path class="cls-6" d="M27.22,11.7c-.69.38-2.83.88-3.59.86-1.11-.03-.17-.15-.8-.86.03,0,.07,0,.1,0,.3-.04,5.04-.64,4.69-.13-.17.05-.23.04-.4.13Z"/>
          </g>
          <g>
            <path class="cls-15" d="M23.83,46c-.16-.08-.35-.08-.45-.26-3.93,2.18-4.93,3.98-5.34,7.99-1.17,1.25-3.96,2.27-4.89,3.54-.48.65-1.28,2.83-.6,3.33-.45.37-1.89,1.65-2.1,2.03-.04.07.04.29,0,.39,0,.01-.27-.09-.2.26-.06-.18-.15-.32-.2-.52-.91-3.34-.9-5.83.8-8.99,2.08-3.86,7.13-7.08,11.38-9.07.53.43,1.14.8,1.6,1.3Z"/>
            <path class="cls-19" d="M23.83,46c.48.23,2.58,1.86,3.39,2.42v.09l-.95-.6c-2.17,1.35-2.29,1.51-3.84,3.15-.04.04.15.19,0,.35-.37.4-4.17,3.3-4.94,3.84-2.16,1.53-4.2,1.52-4.24,4.84-.22.18-.49.35-.7.52-.68-.5.12-2.68.6-3.33.93-1.27,3.72-2.29,4.89-3.54.41-4.01,1.41-5.81,5.34-7.99.1.18.29.18.45.26Z"/>
            <path class="cls-6" d="M28.52,49.37c-2.43,1.89-5.04,3.59-7.59,5.36-1.76,1.21-3.49,2.46-5.29,3.63,1.1-.91,1.87-1.97,3.24-2.59l8.33-7.26v-.09s.08-.01.1,0c.45.31,1.17.78,1.2.95Z"/>
            <path class="cls-14" d="M27.22,48.5l-8.33,7.26c-1.37.62-2.14,1.69-3.24,2.59-.84.69-1.78,1.23-2.4,1.73.04-3.32,2.08-3.31,4.24-4.84.77-.54,4.57-3.45,4.94-3.84.15-.16-.04-.31,0-.35,1.56-1.64,1.67-1.8,3.84-3.15l.95.6Z"/>
          </g>
          <g>
            <path class="cls-15" d="M10.45,63.02c.71.58,1.48,1.1,2.3,1.56-.16.18-.31.37-.15.6.15.23,4.79,2.23,5.49,2.33,2.57,1.88,4.78,2.65,7.98,3.46.16.76,3.89,1.23,4.49,1.21.08,0,.02-.17.1-.17.31-.02.41.11.6.09.49-.06,4-.77,3.14-1.34.13-.35,1.94-.55,2.2-1.34.94-.16,3.81-.31,4.09-1.04.4-.08.94-.16,1-.17-1.32.95-2.94,1.63-4.49,2.25-5.28,2.1-9.98,2.81-15.77,1.9-2.49-.39-4.81-1.09-6.79-2.51-2.22-1.59-3.6-3.96-4.39-6.31-.02-.07.02-.19,0-.26-.07-.35.19-.24.2-.26Z"/>
            <path class="cls-15" d="M21.23,67.51c.09,1.13,3.85,1.62,4.64,1.9,1.9.68,2.5,2.46,8.68.6.1-.03.03-.25.05-.26.79-.25,1.22-.2,1.6-.26.21-.04.32-.07.4-.09-.26.79-2.07.99-2.2,1.34.86.57-2.66,1.28-3.14,1.34-.19.02-.29-.11-.6-.09-.08,0-.02.17-.1.17-.6.02-4.33-.45-4.49-1.21-3.2-.81-5.41-1.58-7.98-3.46-.7-.11-5.33-2.1-5.49-2.33-.16-.24-.01-.43.15-.6,2.49,1.39,5.62,2.33,8.48,2.94Z"/>
            <path class="cls-8" d="M40.69,68.37c-.28.73-3.15.87-4.09,1.04-.08.01-.19.05-.4.09-.65-.47-3.72-.04-2.2-.6,1.14,0,2.76-.07,3.89-.17.67-.06,2.2-.23,2.79-.35Z"/>
            <path class="cls-14" d="M31.91,68.81c.02.07-.11.34-.15.35-.13.04-3.44.28-1.8.69.61.15,3.58-.2,4.64-.09-.02,0,.05.23-.05.26-6.18,1.86-6.78.08-8.68-.6-.79-.28-4.55-.78-4.64-1.9,3.26.69,7.33,1.17,10.68,1.3Z"/>
            <path class="cls-6" d="M34.01,68.89c-1.53.56,1.54.13,2.2.6-.38.06-.8,0-1.6.26-1.07-.12-4.03.24-4.64.09-1.64-.41,1.66-.65,1.8-.69.04-.01.17-.27.15-.35.69.03,1.4.09,2.1.09Z"/>
          </g>
        </g>
        <text class="cls-34" transform="translate(61.27 57.93)"><tspan class="cls-1" x="0" y="0">L</tspan><tspan class="cls-35" x="29.42" y="0">uke</tspan><tspan class="cls-1" x="105.99" y="0">C</tspan><tspan class="cls-35" x="141.32" y="0">reated</tspan></text>
      </g>
    </g>
  </g>
</svg>
